<?xml version="1.0" encoding="UTF-8"?>
<svg width="141px" height="141px" viewBox="0 0 141 141" version="1.1" xmlns="http://www.w3.org/2000/svg" xmlns:xlink="http://www.w3.org/1999/xlink">
    <g id="FL-|-Home-Page" stroke="none" stroke-width="1" fill="none" fill-rule="evenodd" fill-opacity="0.5">
        <g id="home-hero" transform="translate(-1241.000000, -250.000000)" fill="#FFE5CC">
            <g id="landscape" transform="translate(408.000000, 0.000000)">
                <path d="M850.715374,366.699314 C849.047051,364.789801 847.480929,362.788925 846.025527,360.705193 L960.973397,360.705191 C959.517983,362.788925 957.951862,364.789801 956.283539,366.699314 L850.715374,366.699314 Z M875.091137,384.681685 L931.907776,384.681685 C923.225557,388.534723 913.612881,390.675808 903.499456,390.675808 C893.386032,390.675808 883.773356,388.534723 875.091137,384.681685 Z M839.300808,348.716944 C838.446296,346.763798 837.678536,344.764138 837.002392,342.722821 L969.996521,342.722821 C969.320377,344.764138 968.552617,346.763798 967.698105,348.716944 L839.300808,348.716944 Z M834.18323,330.734574 C833.900682,328.761893 833.700571,326.762655 833.586497,324.740451 L973.412416,324.740451 C973.298342,326.762655 973.098231,328.761893 972.815682,330.734574 L834.18323,330.734574 Z M833.502117,318.746327 C833.558883,316.725676 833.70148,314.726466 833.926397,312.752204 L973.072516,312.752204 C973.297433,314.726466 973.44003,316.725676 973.496796,318.746327 L833.502117,318.746327 Z M834.874846,306.75808 C835.287753,304.726678 835.788833,302.727251 836.373922,300.763957 L970.62499,300.763957 C971.21008,302.727251 971.71116,304.726678 972.124067,306.75808 L834.874846,306.75808 Z M838.463533,294.769833 C839.144513,293.070881 839.890311,291.40483 840.697872,289.774731 L966.301041,289.774731 C967.108602,291.40483 967.8544,293.070881 968.53538,294.769833 L838.463533,294.769833 Z M842.274482,286.777669 C843.227992,285.067238 844.251285,283.400924 845.340517,281.782566 L961.658396,281.782566 C962.747628,283.400924 963.770921,285.067238 964.72443,286.777669 L842.274482,286.777669 Z M847.474031,278.785504 C848.774432,277.056565 850.153209,275.389777 851.605095,273.790402 L955.393818,273.790402 C956.845704,275.389777 958.224481,277.056565 959.524882,278.785504 L847.474031,278.785504 Z M854.491873,270.79334 C867.12182,258.433587 884.419493,250.812929 903.499456,250.812929 C922.57942,250.812929 939.877093,258.433587 952.50704,270.79334 L854.491873,270.79334 Z" id="home-hero-sun"></path>
            </g>
        </g>
    </g>
</svg>